<svg width="107" height="31" viewBox="0 0 107 31" fill="none" xmlns="http://www.w3.org/2000/svg">
<path d="M16.9666 0.859131V16.4531L4.93365 0.859131H0V25.8172H5.3683V9.93339L14.8848 22.0807C17.4089 20.853 20.0701 19.7549 21.9536 19.2059L22.3349 19.0992V0.859131H16.9666Z" fill="#262626"/>
<path d="M22.3348 25.8171V21.768V20.5022C19.399 21.3562 14.4578 23.6362 11.3313 25.5121C11.217 25.5807 11.1102 25.6494 11.0035 25.7104C10.9501 25.7485 10.8891 25.779 10.8357 25.8171H22.3348Z" fill="#FFC900"/>
<path d="M107 6.63159H101.136L97.5749 12.0685L93.564 6.63159H87.6924L94.6391 16.2244L88.6074 25.8172H94.4714L97.5749 20.5632L101.136 25.8172H107L100.511 16.2244L107 6.63159Z" fill="#262626"/>
<path d="M61.278 6.63159L56.3672 18.1307L51.3802 6.63159H45.7297L53.7822 24.1777L51.2429 30.1408H56.3748L66.7912 6.63159H61.278Z" fill="#262626"/>
<path d="M39.942 8.89634C38.5694 7.55427 36.7012 6.63159 34.261 6.63159C28.0616 6.63159 24.4014 11.0391 24.4014 16.4836C24.4014 21.9282 27.9167 26.3433 34.261 26.3433C36.6326 26.3433 38.5694 25.4206 40.0106 23.9337L40.3156 25.8172H44.4105V6.63159H40.3156L39.942 8.89634ZM34.261 21.6232C30.7076 21.6232 29.1215 19.3203 29.1215 16.4836C29.1215 13.647 30.7838 11.3441 34.261 11.3441C37.54 11.3441 39.4006 13.647 39.4006 16.4836C39.4006 19.3203 37.6925 21.6232 34.261 21.6232Z" fill="#262626"/>
<path d="M81.5387 8.89634C80.1661 7.55427 78.2979 6.63159 75.8577 6.63159C69.6583 6.63159 65.998 11.0467 65.998 16.4913C65.998 21.9358 69.5134 26.3509 75.8577 26.3509C78.2292 26.3509 80.1661 25.4283 81.6073 23.9413L81.9123 25.8248H86.0072V6.63159H81.9123L81.5387 8.89634ZM75.8577 21.6232C72.3043 21.6232 70.7182 19.3203 70.7182 16.4836C70.7182 13.647 72.3805 11.3441 75.8577 11.3441C79.1367 11.3441 80.9973 13.647 80.9973 16.4836C80.9973 19.3203 79.2892 21.6232 75.8577 21.6232Z" fill="#262626"/>
</svg>
