<?xml version="1.0" encoding="UTF-8"?>
<svg width="273px" height="111px" viewBox="0 0 273 111" version="1.1" xmlns="http://www.w3.org/2000/svg" xmlns:xlink="http://www.w3.org/1999/xlink">
    <!-- Generator: Sketch 46.2 (44496) - http://www.bohemiancoding.com/sketch -->
    <title>Logo / Color</title>
    <desc>Created with Sketch.</desc>
    <defs></defs>
    <g id="Symbols" stroke="none" stroke-width="1" fill="none" fill-rule="evenodd">
        <g id="Logo-/-Color">
            <g>
                <path d="M51.486,44.2552 C50.109,40.0592 47.152,37.1002 42.474,37.1002 C36.145,37.1002 32.293,43.0172 32.293,54.6422 C32.156,66.2682 35.595,72.1832 42.749,72.1832 C47.015,72.1832 49.628,70.6702 52.449,64.8222 L61.254,67.1632 C58.296,75.7612 51.829,80.1632 42.749,80.1632 C30.092,80.1632 22.8,70.8762 22.8,54.6422 C22.8,38.4072 30.092,29.1222 42.749,29.1222 C52.242,29.1222 57.746,33.3862 60.084,42.1922 L51.486,44.2552 Z" id="Fill-1" fill="#231F20"></path>
                <path d="M88.0832,51.5472 L81.0662,51.5472 L81.0662,37.5132 L89.7332,37.5132 C94.9622,37.5132 97.7822,39.8532 97.7822,44.5302 C97.7822,49.2082 95.5132,51.5472 88.0832,51.5472 L88.0832,51.5472 Z M98.1942,57.3242 C104.2482,55.6052 107.3442,50.6542 107.2762,44.5302 C107.2062,36.3442 102.6662,29.8102 91.3852,29.8102 L71.5732,29.8102 L71.5732,79.4752 L81.0662,79.4752 L81.0662,59.2522 L89.2522,59.2522 L98.6072,79.4752 L109.1322,79.4752 L98.1942,57.3242 Z" id="Fill-3" fill="#231F20"></path>
                <path d="M130.8713,60.9017 L136.7193,39.3027 L136.8563,39.3027 L142.4273,60.9017 L130.8713,60.9017 Z M142.5653,29.7407 L130.7333,29.7407 L116.4243,79.4757 L125.8493,79.4757 L128.8063,68.7447 L144.4923,68.7447 L147.2433,79.4757 L156.6683,79.4757 L142.5653,29.7407 Z" id="Fill-5" fill="#231F20"></path>
                <polygon id="Fill-7" fill="#231F20" points="161.9343 79.4759 161.9343 29.8099 171.8403 29.8099 191.3773 63.6539 191.5143 63.6539 191.5143 29.8099 200.4573 29.8099 200.4573 79.4759 191.3083 79.4759 171.0143 44.1189 170.8773 44.1189 170.8773 79.4759"></polygon>
                <polygon id="Fill-9" fill="#231F20" points="211.7682 79.4759 211.7682 29.8099 244.6492 29.8099 244.6492 37.7899 221.2612 37.7899 221.2612 49.6209 238.2512 49.6209 238.2512 57.6019 221.2612 57.6019 221.2612 71.4959 245.4062 71.4959 245.4062 79.4759"></polygon>
                <path d="M0,110.229 L0,0 L272.801,0 L272.801,110.229 L0,110.229 Z M4.058,106.17 L268.74,106.17 L268.74,4.06 L4.058,4.06 L4.058,106.17 Z" id="Combined-Shape" fill="#EF483E"></path>
            </g>
        </g>
    </g>
</svg>