<svg xmlns="http://www.w3.org/2000/svg" xml:space="preserve" x="0" y="0" style="enable-background:new 0 0 950 296" version="1.1" viewBox="0 0 950 296"><style>.st0{fill:#fff}</style><path d="M382.9 140.8h22.2v114.9h-22.2V140.8zM429.1 171.6h20.1V185c5.4-10.4 16.7-15.1 28.4-15.1 20.2 0 29.3 14.2 29.3 33.3v52.6h-20.4v-50.6c0-11.8-5.3-18.7-17.2-18.7-12.6 0-20.1 7.9-20.1 19.9v49.4h-20.1v-84.2zM514.7 171.6h21.5l21.7 63.6 21.5-63.6H599l-30.3 84.1h-23.5l-30.5-84.1zM650.1 169.8c25.5 0 45.1 17.9 45.1 43.6 0 26.4-20.6 43.8-46 43.8-25.6 0-46.1-17.7-46.1-43.4 0-26.3 21.8-44 47-44zm23.6 43.8c0-15.5-7.8-28.3-24.3-28.3-17 0-23.7 13.5-23.7 28.9 0 14.9 7.9 27.6 24.2 27.6 16.7 0 23.8-13.5 23.8-28.2zM720.6 136.1c6.5 0 11.7 4.8 11.7 11.5 0 6.6-5 11.4-11.6 11.4-6.5 0-12-4.9-12-11.5 0-6.7 5.4-11.4 11.9-11.4zm-10.1 35.7h20.1v83.9h-20.1v-83.9zM829.1 231.9c-5.6 17.6-21.3 25.4-38.8 25.4-26.7 0-42.6-17.9-42.6-43.9 0-25 17.8-43.6 43.1-43.6 17 0 31.7 7.1 37.9 23.6l-16.2 7.1c-3.4-9.4-11.5-14.8-21.7-14.8-16.4 0-22.4 14.2-22.4 28.6 0 14.8 6.5 27.6 22.8 27.6 11.5 0 19.3-6.4 22.8-16.9l15.1 6.9zM920.2 237.4c-7 14.8-22 19.8-37.5 19.8-26.5 0-43.2-17.7-43.2-43.9 0-24.6 17-43.6 42.3-43.6 27.2 0 40.4 15.9 40.4 48.3H860c0 14.2 8.2 24.6 23.5 24.6 9.1 0 16.6-3.7 21-12.2l15.7 7zm-18.1-32.5c-.6-12.7-8.3-20.5-20.2-20.5-12.6 0-20 8.9-21.7 20.5h41.9zM382.2 104.4l37-53.4H386V40.5h50.6v5.2l-36.1 53.4h35v10.5h-53.3v-5.2zM468.3 58c15.4 0 27.2 10.8 27.2 26.3 0 15.9-12.4 26.4-27.7 26.4-15.4 0-27.8-10.7-27.8-26.1 0-16 13-26.6 28.3-26.6zm14.2 26.3c0-9.3-4.7-17.1-14.6-17.1-10.2 0-14.3 8.1-14.3 17.4 0 9 4.8 16.6 14.6 16.6 10 .1 14.3-8 14.3-16.9zM504.3 36.1h12.1v31c3.3-6.3 9.9-9.1 16.9-9.1 12.1 0 18.2 8.5 18.2 20v31.7h-12.2V79.2c0-7.3-3.8-11.2-10.8-11.2-7.8 0-12 4.8-12 12v29.7h-12.1l-.1-73.6zM587.6 58c15.4 0 27.2 10.8 27.2 26.3 0 15.9-12.4 26.4-27.7 26.4-15.4 0-27.8-10.7-27.8-26.1 0-16 13.1-26.6 28.3-26.6zm14.2 26.3c0-9.3-4.7-17.1-14.7-17.1-10.2 0-14.3 8.1-14.3 17.4 0 9 4.8 16.6 14.6 16.6 10.2.1 14.4-8 14.4-16.9zM166.4 116.5H206c4.7 0 8.5-3.8 8.5-8.5V68.4c0-4.7-3.8-8.5-8.5-8.5h-39.6c-4.7 0-8.5 3.8-8.5 8.5V108c0 4.7 3.8 8.5 8.5 8.5zm8.5-39.7h22.6v22.7h-22.6V76.8z" class="st0"/><path d="M309.1 3h-154C128.5 3 107 24.6 107 51.1v31.3H75.6c-26.5 0-48 21.5-48 48V245c0 26.5 21.5 48 48 48h165.6c20.4 0 39.6-8 54.1-22.4s22.4-33.6 22.4-54.1v-205c-.1-4.7-3.9-8.5-8.6-8.5zM75.6 99.5h31.3v51H44.6v-20.1c0-17 13.9-30.9 31-30.9zm.2 176.5h-.2c-17.1 0-31-13.9-31-31v-77.5h62.3V245c0 17.1-13.9 31-31 31h-.1zm224.8-59.5c0 32.8-26.7 59.5-59.5 59.5H112.5c7.1-8.4 11.4-19.2 11.4-31V51.2c0-17.2 14-31.1 31.1-31.1h145.6v196.4z" class="st0"/><path d="M166.4 167.5H258c4.7 0 8.5-3.8 8.5-8.5s-3.8-8.5-8.5-8.5h-91.6c-4.7 0-8.5 3.8-8.5 8.5s3.8 8.5 8.5 8.5zM166.4 218.5H258c4.7 0 8.5-3.8 8.5-8.5s-3.8-8.5-8.5-8.5h-91.6c-4.7 0-8.5 3.8-8.5 8.5s3.8 8.5 8.5 8.5z" class="st0"/></svg>
